<?xml version="1.0" encoding="UTF-8"?>
<svg id="Layer_2" data-name="Layer 2" xmlns="http://www.w3.org/2000/svg" viewBox="0 0 1839.92 40.93">
  <defs>
    <style>
      .cls-1 {
        fill: #c9a962;
      }
    </style>
  </defs>
  <g id="OBJECTS">
    <g>
      <g>
        <rect class="cls-1" width="461.74" height="2.99"/>
        <rect class="cls-1" y="37.94" width="461.74" height="2.99"/>
        <polygon class="cls-1" points="461.72 32.41 458.72 32.41 458.72 11.55 440.9 11.55 440.9 18.96 451.95 18.96 451.95 32.37 428.13 32.37 428.13 11.55 410.31 11.55 410.31 18.96 421.36 18.96 421.36 32.37 397.54 32.37 397.54 11.55 379.72 11.55 379.72 18.96 390.77 18.96 390.77 32.37 366.95 32.37 366.95 11.55 349.13 11.55 349.13 18.96 360.18 18.96 360.18 32.37 336.36 32.37 336.36 11.55 318.54 11.55 318.54 18.96 329.59 18.96 329.59 32.37 305.77 32.37 305.77 11.55 287.95 11.55 287.95 18.96 299 18.96 299 32.37 275.18 32.37 275.18 11.55 257.36 11.55 257.36 18.96 268.41 18.96 268.41 32.37 244.59 32.37 244.59 11.55 226.77 11.55 226.77 18.96 237.82 18.96 237.82 32.37 214 32.37 214 11.55 196.17 11.55 196.17 18.96 207.23 18.96 207.23 32.37 183.4 32.37 183.4 11.55 165.58 11.55 165.58 18.96 176.63 18.96 176.63 32.37 152.81 32.37 152.81 11.55 134.99 11.55 134.99 18.96 146.04 18.96 146.04 32.37 122.22 32.37 122.22 11.55 104.4 11.55 104.4 18.96 115.45 18.96 115.45 32.37 91.63 32.37 91.63 11.55 73.81 11.55 73.81 18.96 85.01 18.96 85.01 32.37 61.19 32.37 61.19 11.55 43.37 11.55 43.37 18.96 54.42 18.96 54.42 32.37 30.6 32.37 30.6 11.55 12.78 11.55 12.78 18.96 23.83 18.96 23.83 32.37 .01 32.37 .01 8.53 3.01 8.53 3.01 29.37 20.83 29.37 20.83 21.96 9.78 21.96 9.78 8.55 33.6 8.55 33.6 29.37 51.42 29.37 51.42 21.96 40.37 21.96 40.37 8.55 64.19 8.55 64.19 29.37 82.01 29.37 82.01 21.96 70.81 21.96 70.81 8.55 94.63 8.55 94.63 29.37 112.45 29.37 112.45 21.96 101.4 21.96 101.4 8.55 125.22 8.55 125.22 29.37 143.04 29.37 143.04 21.96 131.99 21.96 131.99 8.55 155.81 8.55 155.81 29.37 173.63 29.37 173.63 21.96 162.58 21.96 162.58 8.55 186.4 8.55 186.4 29.37 204.23 29.37 204.23 21.96 193.17 21.96 193.17 8.55 217 8.55 217 29.37 234.82 29.37 234.82 21.96 223.77 21.96 223.77 8.55 247.59 8.55 247.59 29.37 265.41 29.37 265.41 21.96 254.36 21.96 254.36 8.55 278.18 8.55 278.18 29.37 296 29.37 296 21.96 284.95 21.96 284.95 8.55 308.77 8.55 308.77 29.37 326.59 29.37 326.59 21.96 315.54 21.96 315.54 8.55 339.36 8.55 339.36 29.37 357.18 29.37 357.18 21.96 346.13 21.96 346.13 8.55 369.95 8.55 369.95 29.37 387.77 29.37 387.77 21.96 376.72 21.96 376.72 8.55 400.54 8.55 400.54 29.37 418.36 29.37 418.36 21.96 407.31 21.96 407.31 8.55 431.13 8.55 431.13 29.37 448.95 29.37 448.95 21.96 437.9 21.96 437.9 8.55 461.72 8.55 461.72 32.41"/>
      </g>
      <g>
        <rect class="cls-1" x="459.72" y="0" width="461.74" height="2.99"/>
        <rect class="cls-1" x="459.72" y="37.94" width="461.74" height="2.99"/>
        <polygon class="cls-1" points="921.45 32.41 918.45 32.41 918.45 11.55 900.63 11.55 900.63 18.96 911.68 18.96 911.68 32.37 887.86 32.37 887.86 11.55 870.04 11.55 870.04 18.96 881.09 18.96 881.09 32.37 857.27 32.37 857.27 11.55 839.44 11.55 839.44 18.96 850.5 18.96 850.5 32.37 826.68 32.37 826.68 11.55 808.85 11.55 808.85 18.96 819.9 18.96 819.9 32.37 796.08 32.37 796.08 11.55 778.26 11.55 778.26 18.96 789.31 18.96 789.31 32.37 765.49 32.37 765.49 11.55 747.67 11.55 747.67 18.96 758.72 18.96 758.72 32.37 734.9 32.37 734.9 11.55 717.08 11.55 717.08 18.96 728.13 18.96 728.13 32.37 704.31 32.37 704.31 11.55 686.49 11.55 686.49 18.96 697.54 18.96 697.54 32.37 673.72 32.37 673.72 11.55 655.9 11.55 655.9 18.96 666.95 18.96 666.95 32.37 643.13 32.37 643.13 11.55 625.31 11.55 625.31 18.96 636.36 18.96 636.36 32.37 612.54 32.37 612.54 11.55 594.72 11.55 594.72 18.96 605.77 18.96 605.77 32.37 581.95 32.37 581.95 11.55 564.13 11.55 564.13 18.96 575.18 18.96 575.18 32.37 551.36 32.37 551.36 11.55 533.53 11.55 533.53 18.96 544.74 18.96 544.74 32.37 520.92 32.37 520.92 11.55 503.1 11.55 503.1 18.96 514.15 18.96 514.15 32.37 490.33 32.37 490.33 11.55 472.51 11.55 472.51 18.96 483.56 18.96 483.56 32.37 459.74 32.37 459.74 8.53 462.74 8.53 462.74 29.37 480.56 29.37 480.56 21.96 469.51 21.96 469.51 8.55 493.33 8.55 493.33 29.37 511.15 29.37 511.15 21.96 500.1 21.96 500.1 8.55 523.92 8.55 523.92 29.37 541.74 29.37 541.74 21.96 530.53 21.96 530.53 8.55 554.36 8.55 554.36 29.37 572.18 29.37 572.18 21.96 561.13 21.96 561.13 8.55 584.95 8.55 584.95 29.37 602.77 29.37 602.77 21.96 591.72 21.96 591.72 8.55 615.54 8.55 615.54 29.37 633.36 29.37 633.36 21.96 622.31 21.96 622.31 8.55 646.13 8.55 646.13 29.37 663.95 29.37 663.95 21.96 652.9 21.96 652.9 8.55 676.72 8.55 676.72 29.37 694.54 29.37 694.54 21.96 683.49 21.96 683.49 8.55 707.31 8.55 707.31 29.37 725.13 29.37 725.13 21.96 714.08 21.96 714.08 8.55 737.9 8.55 737.9 29.37 755.72 29.37 755.72 21.96 744.67 21.96 744.67 8.55 768.49 8.55 768.49 29.37 786.31 29.37 786.31 21.96 775.26 21.96 775.26 8.55 799.08 8.55 799.08 29.37 816.9 29.37 816.9 21.96 805.85 21.96 805.85 8.55 829.68 8.55 829.68 29.37 847.5 29.37 847.5 21.96 836.44 21.96 836.44 8.55 860.27 8.55 860.27 29.37 878.09 29.37 878.09 21.96 867.04 21.96 867.04 8.55 890.86 8.55 890.86 29.37 908.68 29.37 908.68 21.96 897.63 21.96 897.63 8.55 921.45 8.55 921.45 32.41"/>
      </g>
    </g>
    <g>
      <g>
        <rect class="cls-1" x="918.46" y="0" width="461.74" height="2.99"/>
        <rect class="cls-1" x="918.46" y="37.94" width="461.74" height="2.99"/>
        <polygon class="cls-1" points="1380.18 32.41 1377.18 32.41 1377.18 11.55 1359.36 11.55 1359.36 18.96 1370.41 18.96 1370.41 32.37 1346.59 32.37 1346.59 11.55 1328.77 11.55 1328.77 18.96 1339.82 18.96 1339.82 32.37 1316 32.37 1316 11.55 1298.18 11.55 1298.18 18.96 1309.23 18.96 1309.23 32.37 1285.41 32.37 1285.41 11.55 1267.59 11.55 1267.59 18.96 1278.64 18.96 1278.64 32.37 1254.82 32.37 1254.82 11.55 1237 11.55 1237 18.96 1248.05 18.96 1248.05 32.37 1224.23 32.37 1224.23 11.55 1206.41 11.55 1206.41 18.96 1217.46 18.96 1217.46 32.37 1193.64 32.37 1193.64 11.55 1175.82 11.55 1175.82 18.96 1186.87 18.96 1186.87 32.37 1163.05 32.37 1163.05 11.55 1145.23 11.55 1145.23 18.96 1156.28 18.96 1156.28 32.37 1132.45 32.37 1132.45 11.55 1114.63 11.55 1114.63 18.96 1125.69 18.96 1125.69 32.37 1101.86 32.37 1101.86 11.55 1084.04 11.55 1084.04 18.96 1095.09 18.96 1095.09 32.37 1071.27 32.37 1071.27 11.55 1053.45 11.55 1053.45 18.96 1064.5 18.96 1064.5 32.37 1040.68 32.37 1040.68 11.55 1022.86 11.55 1022.86 18.96 1033.91 18.96 1033.91 32.37 1010.09 32.37 1010.09 11.55 992.27 11.55 992.27 18.96 1003.47 18.96 1003.47 32.37 979.65 32.37 979.65 11.55 961.83 11.55 961.83 18.96 972.88 18.96 972.88 32.37 949.06 32.37 949.06 11.55 931.24 11.55 931.24 18.96 942.29 18.96 942.29 32.37 918.47 32.37 918.47 8.53 921.47 8.53 921.47 29.37 939.29 29.37 939.29 21.96 928.24 21.96 928.24 8.55 952.06 8.55 952.06 29.37 969.88 29.37 969.88 21.96 958.83 21.96 958.83 8.55 982.65 8.55 982.65 29.37 1000.47 29.37 1000.47 21.96 989.27 21.96 989.27 8.55 1013.09 8.55 1013.09 29.37 1030.91 29.37 1030.91 21.96 1019.86 21.96 1019.86 8.55 1043.68 8.55 1043.68 29.37 1061.5 29.37 1061.5 21.96 1050.45 21.96 1050.45 8.55 1074.27 8.55 1074.27 29.37 1092.09 29.37 1092.09 21.96 1081.04 21.96 1081.04 8.55 1104.86 8.55 1104.86 29.37 1122.69 29.37 1122.69 21.96 1111.63 21.96 1111.63 8.55 1135.45 8.55 1135.45 29.37 1153.28 29.37 1153.28 21.96 1142.23 21.96 1142.23 8.55 1166.05 8.55 1166.05 29.37 1183.87 29.37 1183.87 21.96 1172.82 21.96 1172.82 8.55 1196.64 8.55 1196.64 29.37 1214.46 29.37 1214.46 21.96 1203.41 21.96 1203.41 8.55 1227.23 8.55 1227.23 29.37 1245.05 29.37 1245.05 21.96 1234 21.96 1234 8.55 1257.82 8.55 1257.82 29.37 1275.64 29.37 1275.64 21.96 1264.59 21.96 1264.59 8.55 1288.41 8.55 1288.41 29.37 1306.23 29.37 1306.23 21.96 1295.18 21.96 1295.18 8.55 1319 8.55 1319 29.37 1336.82 29.37 1336.82 21.96 1325.77 21.96 1325.77 8.55 1349.59 8.55 1349.59 29.37 1367.41 29.37 1367.41 21.96 1356.36 21.96 1356.36 8.55 1380.18 8.55 1380.18 32.41"/>
      </g>
      <g>
        <rect class="cls-1" x="1378.18" y="0" width="461.74" height="2.99"/>
        <rect class="cls-1" x="1378.18" y="37.94" width="461.74" height="2.99"/>
        <polygon class="cls-1" points="1839.91 32.41 1836.91 32.41 1836.91 11.55 1819.09 11.55 1819.09 18.96 1830.14 18.96 1830.14 32.37 1806.32 32.37 1806.32 11.55 1788.5 11.55 1788.5 18.96 1799.55 18.96 1799.55 32.37 1775.73 32.37 1775.73 11.55 1757.9 11.55 1757.9 18.96 1768.96 18.96 1768.96 32.37 1745.13 32.37 1745.13 11.55 1727.31 11.55 1727.31 18.96 1738.36 18.96 1738.36 32.37 1714.54 32.37 1714.54 11.55 1696.72 11.55 1696.72 18.96 1707.77 18.96 1707.77 32.37 1683.95 32.37 1683.95 11.55 1666.13 11.55 1666.13 18.96 1677.18 18.96 1677.18 32.37 1653.36 32.37 1653.36 11.55 1635.54 11.55 1635.54 18.96 1646.59 18.96 1646.59 32.37 1622.77 32.37 1622.77 11.55 1604.95 11.55 1604.95 18.96 1616 18.96 1616 32.37 1592.18 32.37 1592.18 11.55 1574.36 11.55 1574.36 18.96 1585.41 18.96 1585.41 32.37 1561.59 32.37 1561.59 11.55 1543.77 11.55 1543.77 18.96 1554.82 18.96 1554.82 32.37 1531 32.37 1531 11.55 1513.18 11.55 1513.18 18.96 1524.23 18.96 1524.23 32.37 1500.41 32.37 1500.41 11.55 1482.58 11.55 1482.58 18.96 1493.64 18.96 1493.64 32.37 1469.82 32.37 1469.82 11.55 1451.99 11.55 1451.99 18.96 1463.2 18.96 1463.2 32.37 1439.38 32.37 1439.38 11.55 1421.56 11.55 1421.56 18.96 1432.61 18.96 1432.61 32.37 1408.79 32.37 1408.79 11.55 1390.97 11.55 1390.97 18.96 1402.02 18.96 1402.02 32.37 1378.2 32.37 1378.2 8.53 1381.2 8.53 1381.2 29.37 1399.02 29.37 1399.02 21.96 1387.97 21.96 1387.97 8.55 1411.79 8.55 1411.79 29.37 1429.61 29.37 1429.61 21.96 1418.56 21.96 1418.56 8.55 1442.38 8.55 1442.38 29.37 1460.2 29.37 1460.2 21.96 1448.99 21.96 1448.99 8.55 1472.82 8.55 1472.82 29.37 1490.64 29.37 1490.64 21.96 1479.58 21.96 1479.58 8.55 1503.41 8.55 1503.41 29.37 1521.23 29.37 1521.23 21.96 1510.18 21.96 1510.18 8.55 1534 8.55 1534 29.37 1551.82 29.37 1551.82 21.96 1540.77 21.96 1540.77 8.55 1564.59 8.55 1564.59 29.37 1582.41 29.37 1582.41 21.96 1571.36 21.96 1571.36 8.55 1595.18 8.55 1595.18 29.37 1613 29.37 1613 21.96 1601.95 21.96 1601.95 8.55 1625.77 8.55 1625.77 29.37 1643.59 29.37 1643.59 21.96 1632.54 21.96 1632.54 8.55 1656.36 8.55 1656.36 29.37 1674.18 29.37 1674.18 21.96 1663.13 21.96 1663.13 8.55 1686.95 8.55 1686.95 29.37 1704.77 29.37 1704.77 21.96 1693.72 21.96 1693.72 8.55 1717.54 8.55 1717.54 29.37 1735.36 29.37 1735.36 21.96 1724.31 21.96 1724.31 8.55 1748.13 8.55 1748.13 29.37 1765.96 29.37 1765.96 21.96 1754.9 21.96 1754.9 8.55 1778.73 8.55 1778.73 29.37 1796.55 29.37 1796.55 21.96 1785.5 21.96 1785.5 8.55 1809.32 8.55 1809.32 29.37 1827.14 29.37 1827.14 21.96 1816.09 21.96 1816.09 8.55 1839.91 8.55 1839.91 32.41"/>
      </g>
    </g>
  </g>
</svg>