<?xml version="1.0" encoding="UTF-8"?>
<svg id="Layer_1" data-name="Layer 1" xmlns="http://www.w3.org/2000/svg" viewBox="0 0 300 300">
  <defs>
    <style>
      .cls-1 {
        fill: #c9a962;
      }
    </style>
  </defs>
  <g id="Layer_1-2" data-name="Layer 1-2">
    <g>
      <path class="cls-1" d="M174.78,145.27s0,.03.02.05l-.02-.05Z"/>
      <path class="cls-1" d="M178.12,148c-.6-1.91-1.62-4.19-2.39-6.1-1.19-2.94-2.33-5.9-3.42-8.87l-4.71-12.58c-.61-1.66-1.24-3.32-1.88-4.98-2.05-5.18-2.54-5.43-7.64-7.46-1.06-.43-2.12-.88-3.17-1.34-2.81,1.89-5.6,2.26-8.73.93-.42-.18-1.35-.87-1.69-.88-2.33,1.09-6.61,2.32-8.27,4.09-.66.71-1.14,1.62-1.53,2.5-1.04,2.34-1.9,4.79-2.79,7.18l-4.22,11.3c-1.17,3.14-2.37,6.27-3.59,9.39-.75,1.89-1.77,4.18-2.44,6.04-.09.25-.17.51-.24.77.71.74,2.41,1.72,3.31,2.25,2.1,1.23,4.22,2.42,6.37,3.58.85.45,1.91.94,2.69,1.39-.32,2.17-.52,4.84-.76,7.06l-1.4,12.81-1.94,16.61c-.24,2.02-.55,4.14-.74,6.15,1.6,2.43,5.6,2.01,7.99,1.45.64-.15,1.37-.15,1.99.08.25.27.56.83.79,1.02,2.06,1.7,5.24,1.32,7.74,1.19.79-.04,1.52-.23,2.31-.23.65,0,1.56.17,2.23.22,1.18.09,3.1.22,4.26.08,1.31-.14,2.86-.39,3.75-1.48.45-.55.58-.92,1.34-.97.9-.07,1.95.23,2.85.38,2.21.37,4.79.17,6.36-1.64-.04-1.3-.42-3.69-.58-5.09l-1.33-11.34-2.88-26.33c2.96-1.46,5.96-3.17,8.83-4.82.84-.48,2.9-1.72,3.53-2.36h0ZM133.76,154.38c-2.09-.99-4.34-2.3-6.38-3.44-1.6-.89-3.7-2.07-5.15-3.16l.22-.71c3.78,2.21,7.61,4.35,11.47,6.43-.02.22-.03.74-.16.88h0ZM145.48,200.98c.43-7.31.75-14.62.98-21.93l.22-5.7c.02-.49.09-2.17.04-2.57l-.11-.07c-.32.23-.26,2.69-.28,3.22l-.3,7.65-.53,12.81c-.07,1.4-.14,2.8-.22,4.2-.04.74-.12,1.67-.13,2.4-1.56,0-3.85-.06-5.03-1.25-.22-.22-.38-.51-.54-.77.21-1.25.36-3.07.48-4.36.26-2.74.49-5.48.69-8.22.54-7.07,1.04-14.14,1.49-21.22l.82-13.08c.09-1.45.18-2.91.25-4.36.02-.47.19-1.65-.03-1.98h-.08c-.25.47-.35,4.05-.39,4.75l-.55,8.84c-.72,13.17-1.72,26.33-3.01,39.46-2.07-1.28-6.7,1.89-9.58-1.16.4-3.48,1.28-6.85,2.02-10.28,1.18-5.37,2.26-10.77,3.25-16.18.1-.56.56-2.91.47-3.32l-.08-.09h-.11c-.19.35-.88,4.7-1.03,5.48-.75,3.98-1.55,7.95-2.41,11.91l-.8,3.73c-.12.54-.25,1.31-.41,1.82,0,.16-.04.69-.17.78-.07-.24,0-.56.07-.81.2-.8.37-2.83.48-3.74l.84-7.19c.86-7.53,6.94-62.36,5.77-64.62-.07-.14-.1-.11-.24-.15-.51.43-.31,1.75-.32,2.43-.02,1.16-.07,2.33-.15,3.49-.46,6.89-1.04,13.76-1.74,20.63-.3,3.09-.71,6.43-.91,9.51-.09-.27-.11-.48-.31-.63l-.13.02c-.06.18.25,1.22.26,1.54.01.36-.02.59-.05.94-.06-.32-.49-2.25-.64-2.39-.16,0-.09-.02-.2.09.02.4.41,1.93.52,2.41-.43-.27-.43-.23-.45-.73v-.09c-.09-.15-.09-.13-.25-.21l-.03.02c-.01.11,0,.22-.07.31-.03.04-.04.04-.09.05-.32.04-3.03-1.53-3.44-1.82-.1-.21.15-.11.16-.44-.15-.12-.07-.08-.26-.11-.14.11-.17.13-.33.22-.21.03-.36-.1-.55-.21.32-.09,2.13-.65,2.26-.82-.05-.17,0-.1-.15-.2-.45.08-1.73.53-2.25.7-.18-.59-.38-2.03-.65-2.39h-.09c-.18.36.29,1.97.41,2.45-.18-.1-.26-.14-.42-.27-.09-.24-.06-.17,0-.46-.05-.13-.16-.25-.31-.22-.04.18-.04.19-.13.35-.43.09-2.84-1.55-3.52-1.87h-.13s-.11-.2-.11-.2c-.19-.1-.43-.21-.62-.32.54-.17,1.76-.5,2.2-.79.03-.13.02-.06-.04-.21-.34-.07-1.72.67-2.02.53-.04-.51,1.59-.51,1.89-.99l-.03-.12c-.41-.15-1.11.44-1.47.32,0-.2-.02-.1.11-.3.13-.03.17-.05.27-.13.1-.37-.06-.43.1-.71.11-.19-.01-.28.15-.51.13,0,.23-.02.36-.05.13-.17.11-.08.1-.27-.08-.09-.24-.22-.21-.3.24-.7.62-1.59.89-2.26.51-1.27,1.01-2.55,1.48-3.83l8.31-22.14-1.72,16.79-.6,5.92c-.07.73-.16,1.5-.24,2.23-.02.16.07.31.16.44h.09c.16-.34.43-3.63.5-4.3l1.55-15.25.45-4.38c.2-1.94.33-3.62,1.78-5.13,1.54-1.6,4.37-2.45,6.41-3.28.43,2.79.94,4.98,2.4,7.46.79,1.34,1.68,2.52,2.17,4.03.77,2.39.57,5.37.57,7.92v6.93c-.32.33-.84.76-.94,1.19.16.87,2.46,1.96,1.91,2.69-.28.37-1.53,1.34-1.59,1.88.26.05.61-.39.78-.58.32.33.7.68.98,1.04v42.59c0,5.76-.05,11.64.01,17.4-1.19.2-2.73.35-3.94.37h0ZM149.35,139.95h-.09s-.2-.18-.2-.18l-.4-.4c.23-.25.47-.49.72-.74.03.37.1.99-.03,1.31h0ZM149.41,126.79v10.63s-.68-.68-.68-.68c-.37-.38-.74-.76-1.12-1.13.31-.39.67-.72.99-1.13v-6.78c0-2.77.22-5.93-.68-8.51-.48-1.37-1.26-2.41-1.99-3.64-1.53-2.56-2.04-4.72-2.48-7.6l.57-.26c.11,0,.05,0,.18.01.07.35.12.74.17,1.1.29,2.37,1.32,4.5,2.51,6.54.71,1.21,1.55,2.38,2,3.73.25.75.41,1.52.48,2.31.12,1.36.04,3.99.04,5.42h0ZM149.75,119.5c-.35-1.4-1.02-2.55-1.77-3.76-1.61-2.6-2.74-4.89-3.03-7.99,3.36,1.84,6.28,1.76,9.63,0-.34,3.09-1.29,5.07-2.82,7.65-.99,1.58-1.42,2.31-2,4.1h0ZM150.45,119.61c.29-1.22,1.21-2.72,1.87-3.8,1.69-2.75,2.66-4.93,2.97-8.19.24.09.5.2.73.31-.17,2.53-1.16,5.51-2.48,7.66-.85,1.38-1.74,2.64-2.17,4.25-.63,2.31-.46,5.16-.46,7.6v7.12c.36.35.66.67,1,1.04-.26.28-.59.61-.86.88l-.94.95v-10.12c0-2.31-.17-5.49.36-7.68h0ZM150.09,138.64c.23.17.56.43.65.68-.02.24-.04.18-.26.4l-.4.4v-1.48s0,0,0,0ZM167.25,175.56l1.22,10.52.36,3.08c.06.56.18,1.34.17,1.89-.25-.31-3.36-15.94-3.72-17.92-.14-.74-.79-4.99-1.03-5.33l-.11-.02-.07.1c-.02.62.24,1.89.36,2.55l.68,3.78c.84,4.38,1.73,8.75,2.69,13.11.59,2.74,1.22,5.49,1.78,8.24.13.64.19,1.45.3,2.12-3.17,2.98-7.21-.1-9.61,1.11-1.15-11.79-2.07-23.61-2.74-35.44l-.75-12.06-.22-3.6c-.02-.39.02-1.69-.26-1.9l-.08.06c-.2.63.37,8.03.46,9.44.55,9.06,1.15,18.12,1.82,27.17.41,5.47.79,11.15,1.47,16.58-1.17,1.96-3.51,1.95-5.56,1.95-.37-6.68-.68-13.36-.91-20.04l-.26-6.96c-.03-.86-.06-1.71-.08-2.57,0-.25-.02-.52-.23-.68l-.08.07c-.09.36,0,2.06.02,2.56l.19,5.24c.17,4.89.37,9.77.59,14.66.11,2.45.2,5.3.43,7.72-1.19-.03-2.78-.17-3.96-.38v-59.97c.31-.34.66-.7.97-1.04.21.23.44.54.75.56l.04-.09c-.29-.73-1.34-1.38-1.66-1.88-.37-.59,1.81-1.79,1.99-2.6-.07-.38-.65-.9-.93-1.2v-6.67c0-2.55-.2-5.65.52-8.03.41-1.36,1.26-2.59,2-3.8,1.52-2.5,2.27-4.93,2.6-7.83,1.75.73,3.81,1.41,5.4,2.41,1.09.69,1.96,2.03,2.41,3.22.18.48.3,1.84.36,2.42l.34,3.27,1.5,14.75.39,3.93c.04.43.13,2.15.39,2.33l.11-.06c.11-.23-.14-2.21-.19-2.66l-.49-4.89-1.81-17.71c.3.66.69,1.74.95,2.43l1.67,4.45,5.05,13.48c.21.55,3.06,7.82,3.06,7.86-.13.14-.15.16-.25.33.04.2,0,.12.15.24.8,0,.33.93.61,1.3l.13-.02c.13.08.22.35.3.53-.5-.2-1.13-.54-1.61-.45l-.02.12c.27.31,1.84.45,1.91,1.02-.33.06-1.6-.72-2.07-.5v.09c.34.3,1.69.69,2.18.85-.24.14-.3.23-.54.22-.1-.11-.12-.14-.23-.24-.18,0-.19.03-.35.13v.09s.27.18.27.18v.09c-.77.57-2.65,1.55-3.56,2.06-.09.12-.03.08-.17.14-.25.1-.39.17-.63.31.18-.69.51-1.74.42-2.42l-.06-.02c-.32.51-.5,1.78-.7,2.43-.55-.21-1.77-.72-2.3-.68v.07c.4.35,1.59.71,2.15.9-.18.1-.4.22-.54.37-.13.18-.41.31-.63.34-.38.08-2.79,1.61-3.24,1.72-.06-.15-.08-.24-.11-.39l-.09-.05-.13.07c-.16.53.01.57-.51.87l-.07.04c.11-.42.67-2.14.47-2.45h-.11c-.22.27-.57,1.92-.67,2.37-.02-.3-.05-.63-.03-.92.03-.42.33-1.19.26-1.59l-.08-.03c-.25.17-.15.21-.32.39-.11-.38-.18-1.48-.23-1.94l-.39-3.96c-.43-4.31-.83-8.61-1.21-12.92-.34-3.52-.62-7.03-.84-10.56-.11-1.94-.18-3.87-.19-5.82,0-.18-.08-.36-.19-.5-.19-.06-.1-.06-.3.03-.07.09-.15.22-.15.33-.08,5.41.49,10.92.96,16.3,1.31,14.62,2.79,29.23,4.45,43.82h0ZM165.75,154.37c-.12-.13-.13-.64-.16-.87,3.65-1.83,7.85-4.31,11.38-6.37h.04c.14.12.22.42.29.6-.38.36-1.88,1.28-2.36,1.57-2.96,1.77-6.03,3.45-9.09,5.04l-.11.03h0Z"/>
    </g>
  </g>
</svg>