<?xml version="1.0" encoding="UTF-8"?>
<svg id="Layer_1" data-name="Layer 1" xmlns="http://www.w3.org/2000/svg" viewBox="0 0 300 300">
  <defs>
    <style>
      .cls-1 {
        fill: #c9a962;
      }
    </style>
  </defs>
  <path class="cls-1" d="M134.34,157.23v-26.49h24.08v26.49c0,6.64-5.4,12.04-12.04,12.04s-12.04-5.4-12.04-12.04ZM145.83,118.06c.91-1.93,2.72-2.99,5.08-2.99,3.84,0,6.79,2.48,7.88,3.55.47.46,1.22.46,1.68,0,1.09-1.07,4.04-3.55,7.88-3.55,2.5,0,4.35,1.17,5.22,3.29,1.14,2.8.48,7.66-3.67,11.73-2.46,2.4-5.57,4.47-9.06,6.04v-6.61c0-.66-.54-1.2-1.2-1.2h-11.79c-2.53-3.36-3.36-7.42-2.01-10.26ZM160.83,157.23v-18.47c4.14-1.73,7.85-4.11,10.74-6.94,4.31-4.22,6-9.99,4.22-14.36-1.24-3.04-3.96-4.79-7.45-4.79-3.93,0-7.03,2.05-8.72,3.47-1.68-1.42-4.79-3.47-8.72-3.47-3.29,0-5.94,1.59-7.25,4.36-1.55,3.27-1.02,7.51,1.27,11.29h-4.94l-5.72-14.88c-.18-.46-.63-.77-1.12-.77h-8.43c-.66,0-1.2.54-1.2,1.2s.54,1.2,1.2,1.2h7.6l5.09,13.25h-4.27c-.66,0-1.2.54-1.2,1.2v27.7c0,7.56,5.84,13.77,13.25,14.39v13.31h-13.25c-.66,0-1.2.54-1.2,1.2s.54,1.2,1.2,1.2h28.9c.66,0,1.2-.54,1.2-1.2s-.54-1.2-1.2-1.2h-13.25v-13.31c7.4-.62,13.25-6.83,13.25-14.39Z"/>
</svg>