<?xml version="1.0" encoding="UTF-8"?>
<svg id="Layer_1" data-name="Layer 1" xmlns="http://www.w3.org/2000/svg" viewBox="0 0 300 300">
  <defs>
    <style>
      .cls-1 {
        fill: #c9a962;
      }
    </style>
  </defs>
  <path class="cls-1" d="M162.38,182.57h-24.85c-5.95-7.37-12.04-16.01-15.08-23.69.01,0,.03,0,.04,0,.11-.05,11.07-4.5,21.9-.98,1.22.4,2.64.76,4.2,1.07v10.82c0,.76.64,1.37,1.41,1.37s1.41-.62,1.41-1.37v-10.32c4.05.63,8.7.99,13.15.99,4.87,0,9.49-.44,12.84-1.41-3.32,8.21-9.92,17.24-15.03,23.53ZM122.78,143.23c7.31-8.3,13.19-6.55,17.98-3.74.09.05.2.08.3.08h7.53s0,.02,0,.03v18.18c-1.41-.29-2.72-.61-3.82-.97-11.21-3.63-22.15.77-22.72,1.01-2.13-5.84-2.37-11.05.74-14.59h0ZM133.31,124.19h8.49l4.64,7.77h-5.46l-7.67-7.77ZM132.57,123.3s-.05.06-.06.09l-.03-.03.09-.06h0ZM140.92,117.42h5.31l-4.61,5.62h-8.56c-.06,0-.11.02-.16.03l8.03-5.66ZM152.35,117.42c.02.08.05.16.11.23l4.43,5.4h-13.77l4.43-5.4c.06-.07.09-.15.11-.23h4.7ZM159.08,117.42l8.03,5.66c-.05-.01-.11-.03-.16-.03h-8.56l-4.61-5.62h5.31ZM167.51,123.37l-.03.03s-.04-.06-.06-.09l.09.06h0ZM159.02,131.96h-5.27l4.46-7.77h8.48l-7.67,7.77ZM149.76,158.01v-18.41s0-.02,0-.03h.49s0,.02,0,.03v18.5c-.16-.03-.32-.06-.47-.09ZM152.45,131.88s-.02.05-.03.08h-4.65s-.01-.06-.03-.09l-4.59-7.68h13.71l-4.42,7.69ZM141.51,133.11h16.9s-.02.06-.02.09v5.22h-16.87s.02-.08.02-.12v-5.01c0-.07-.02-.13-.04-.18ZM149.76,159.19c.16.03.32.05.47.08v10.51c0,.25-.47.25-.47,0v-10.59h0ZM177.12,143.24c3.22,3.48,2.89,8.77.77,14.57-.11-.03-.22-.03-.32,0-6.1,1.95-17.59,1.81-26.14.48v-18.69s0-.02,0-.03h7.69c.09,0,.17-.02.25-.05,6.7-3.01,12.69-1.76,17.77,3.72ZM177.99,142.48c-5.21-5.62-11.56-7.08-18.42-4.29v-4.98c0-.06-.02-.11-.03-.16.06-.03.11-.06.16-.11l9.13-9.25c.12-.12.18-.28.16-.45-.01-.17-.1-.31-.24-.41l-9.13-6.43c-.1-.07-.22-.11-.35-.11h-18.55c-.12,0-.24.04-.35.11l-9.13,6.43c-.14.1-.22.25-.24.41-.01.17.04.33.16.45l9.13,9.25s.09.07.14.1c-.04.08-.07.17-.07.26v4.66c-4.8-2.55-11.09-3.87-18.49,4.53-7.88,8.98,3.75,27.26,14.9,41.01.11.14.28.22.46.22h25.42c.18,0,.35-.08.46-.22,11.28-13.85,23.02-32.21,14.86-41.03h0Z"/>
</svg>