<?xml version="1.0" encoding="UTF-8"?>
<svg id="Layer_1" data-name="Layer 1" xmlns="http://www.w3.org/2000/svg" viewBox="0 0 300 300">
  <defs>
    <style>
      .cls-1 {
        fill: #fff;
      }

      .cls-2 {
        fill: #c9a962;
      }
    </style>
  </defs>
  <path class="cls-2" d="M145.79,112.64c1.22.01.8,2.68.67,3.45.56-.25,1.06-.37,1.68-.27.73.11,1.39.52,1.81,1.14.39.57.54,1.27.41,1.94,1.34.7,2.18,1.87,1.65,3.49-.1.32-.42.58-.27.91l.13.04c.16-.12.47-.62.63-.83.37-.46.8-.87,1.28-1.21,1.4-.99,3.15-1.38,4.84-1.06,1.65.31,3.11,1.26,4.06,2.64,1.05,1.55,1.3,3.18.96,5,.83-.01,1.63.02,2.46.16,2.78.47,5.26,2.02,6.9,4.32,1.8,2.56,2.32,5.39,1.79,8.44.67,0,4.18-.06,4.54.08.43.38.27,1.35.24,1.89-.14,2.33-.57,4.63-1.28,6.86-2.68,8.22-8.75,14.9-16.67,18.35-1.14.48-2.3.9-3.49,1.25-1.85.55-2.23.12-3.34,1.83-1.06,1.64-1.41,3.64-.98,5.55.86,3.95,4.49,6.01,8.16,6.9,1.22.29,2.58.33,3.64.99.7.37,1.87,1.91,1.27,2.66-.22.27-2.72.19-3.12.19h-4.38s-13.47,0-13.47,0h-8.04c-1.35,0-2.73.02-4.08,0-.15-.01-.45-.02-.56-.13-.42-.4-.08-1.24.15-1.65.83-1.5,2.38-1.61,3.89-1.89.65-.12,1.29-.28,1.92-.48,1.8-.57,3.5-1.4,4.86-2.72,3.07-2.99,3.15-7.57.19-10.64-.62-.21-1.63-.4-2.34-.61-2.13-.62-4.18-1.48-6.12-2.55-6.95-3.86-12.09-10.32-14.3-17.95-.39-1.36-1.49-6.71-.9-7.77.27-.23,4-.14,4.66-.13-.26-1.47-.29-2.8,0-4.28.55-2.8,2.19-5.26,4.57-6.84,2.55-1.72,5.46-2.13,8.44-1.56-.45-.76-.52-1.08-.53-1.94-.54-.25-.95-.51-1.3-1.01-.43-.6-.6-1.35-.46-2.08.17-.91.66-1.42,1.38-1.92-.66-.27-3.49-1.38-2.67-2.42.37-.22,1.59.04,2.18,0,1.72-.13,2.46-.77,4.2-.61-.97-1.74-1.66-2.43-3.39-3.38-.35-.19-.12-1.5,1.42-.38,1.44,1.05,1.94,1.69,2.82,3.23.64-1.16,1.48-1.79,2.41-2.72.58-.58,1.06-1.89,1.51-2.26Z"/>
  <path class="cls-1" d="M149.71,146.61c5.05-.16,9.28,3.8,9.45,8.85.17,5.05-3.77,9.29-8.82,9.48-5.07.19-9.33-3.78-9.51-8.85-.18-5.07,3.8-9.32,8.87-9.48Z"/>
  <path class="cls-2" d="M148.77,147.96c.33-.03.7.08.73.44.04.63-1.35.73-1.81.88-.54.18-1.05.44-1.51.77-1.15.81-1.96,2-2.39,3.36-.14.46-.1.86-.41,1.24-.98.27-.81-.74-.65-1.32.83-2.92,3.05-4.86,6.04-5.37Z"/>
  <path class="cls-1" d="M135.28,143.56c3.3-.42,6.55,1.56,8.29,4.28-3.61,3.23-4.65,7.53-2.85,12.05-1.54.98-2.61,1.27-4.42,1.42-2.13.09-4.1-.58-5.76-1.9-1.87-1.48-3.07-3.66-3.32-6.03-.27-2.4.45-4.8,1.99-6.65,1.52-1.87,3.69-2.93,6.07-3.17Z"/>
  <path class="cls-2" d="M135.05,145.3c.18,0,.32.02.44.16.09.11.13.25.11.39-.02.12-.12.32-.23.34-2.56.49-4.59,1.95-5.33,4.53-.12.43-.16,1.1-.55,1.39-.32-.01-.64-.08-.65-.48-.01-1.16.69-2.63,1.37-3.53,1.23-1.62,2.84-2.51,4.83-2.81Z"/>
  <path class="cls-1" d="M174.54,141.8h2.84s1.18,0,1.18,0c-.07,6.74-3.21,13.68-7.82,18.53-5.26,5.57-12.51,8.83-20.17,9.05-15.22.38-28.78-12.31-29.16-27.57h4.05c.66,1.93,1.36,3.04,2.75,4.51-1.01,1.4-1.62,2.6-1.93,4.33-.47,2.63.13,5.35,1.67,7.53.96,1.37,2.36,2.53,3.87,3.25.44.25,1.27.4,1.67.66,3.06,1.98,6.39,3.14,10.01,3.73,6.03.97,13.4.7,19.12-1.66.88-.37,1.74-.78,2.56-1.25,1.01-.59,1.7-1.09,2.85-1.44.41-.12,1.29-.7,1.65-.95,2.16-1.54,3.62-3.88,4.03-6.5.47-2.84-.27-5.39-1.92-7.7,1.42-1.5,2.05-2.6,2.74-4.52Z"/>
  <path class="cls-1" d="M163.29,143.56c.34-.04.9-.04,1.24-.02,3.99.29,7.17,3.06,8.07,6.92.53,2.27.13,4.67-1.11,6.64-2.68,4.25-7.98,5.5-12.22,2.77.14-.33.24-.64.36-.98.17-.51.3-1.04.37-1.57.43-2.72-.26-5.5-1.91-7.71.79-1.65,2.13-2.85,3.89-3.39.29-.09,1.92-.21,1.04-1.08-.23-.22-.99.02-1.3.1-1.94.55-3.33,1.77-4.32,3.5-.32-.33-.63-.61-.98-.91,1.42-2.48,4.06-3.99,6.86-4.28Z"/>
  <path class="cls-1" d="M145.8,170.06c3.03.44,5.38.43,8.4,0-.53.75-.98,1.57-1.25,2.46-.66,2.18-.42,4.54.66,6.55,1.64,3.05,4.64,4.48,7.84,5.37,1.62.45,3.55.22,4.43,1.9h-11.4s-20.38-.01-20.38-.01c.69-1.19,1.55-1.33,2.81-1.55,4.54-.76,9.43-3.15,10.33-8.13.45-2.53-.03-4.47-1.44-6.58Z"/>
  <path class="cls-1" d="M156.94,121.16c2.91-.28,5.5,1.84,5.8,4.75.29,2.91-1.82,5.51-4.73,5.81-2.92.31-5.54-1.82-5.84-4.75-.29-2.93,1.84-5.53,4.77-5.82Z"/>
  <path class="cls-2" d="M157.3,122.17c.49-.09.94.24,1.38.47,1.5-.59,1.73-.34,1.83,1.2,1.2,1.19,1.1,1.66-.52,2.1l-.2.28c-1.05,1.59-1.45.34-2.21-.45-1.57-.47-1.91-.77-.69-2.11-.06-.7-.2-1.05.42-1.5Z"/>
  <path class="cls-1" d="M157.87,123.29c.3.16.5.22.82.34.28-.05.5-.13.77-.21l.05.83.57.65c-.37.05-.51.08-.82.28-.17.22-.26.42-.39.66-.52-.81-.62-.89-1.53-1.15.19-.2.36-.42.54-.63v-.76Z"/>
  <path class="cls-1" d="M146.89,134.74c2.65-.22,1.87,3.83,3.68,4.96.52.36,1.18.44,1.79.33,3.22-.59.99-7.31,5.24-3.9,1.15.92,2.13,1.56,3.63,1.3.46,1.41.6,1.91.7,3.39h-1.81s-19.98,0-19.98,0c.13-1.78.38-2.66,1.13-4.24,2.75.58,3.31-1.34,5.6-1.83Z"/>
  <path class="cls-1" d="M133.64,129.15c0,.12-.57.69-.72.85-1.55,1.72-3.69,4.26-3.66,6.68,0,.63.27,1.2.74,1.6.41.35,1.09.58,1.63.51,1.98-.27,2.58-3.24,3.7-4.57.48-.58,1-1.1,1.78-1.19,1.12-.13,1.7,1.31,2.3,2.05.39.48.49.6.98,1-.24.49-.44.87-.63,1.38-.43,1.25-.57,2.06-.61,3.36h-12.85c-.05-.24-.1-.49-.15-.73-.53-3.14.75-6.64,3.14-8.72,1.18-1.03,2.79-1.97,4.36-2.22Z"/>
  <path class="cls-1" d="M140.22,141.81h21.68s-.14.94-.14.94c-1.53.4-2.67.94-3.9,1.92-1,.79-1.57,1.53-2.28,2.56-.91-.62-1.92-1.08-2.99-1.37-2.11-.55-4.35-.41-6.38.4-.66.27-1.21.59-1.82.94-1.18-1.73-2.06-2.54-3.83-3.6-.22-.71-.29-1.06-.34-1.8Z"/>
  <path class="cls-1" d="M167.99,129.66c1.62.6,3.31,2.01,4.25,3.44,1.66,2.53,2,4.83,1.48,7.71h-10.75c-.06-1.14-.17-1.83-.47-2.92-.1-.33-.23-.67-.35-.99.33-.38.54-.71.75-1.19.43-.97.74-2.81,2.2-2.51,1,.25,1.33,1.73,1.49,2.6.17.94.11,1.96.62,2.79.17.28.56.63.9.66,2.91.28,2.32-3.55,1.93-5.25-.41-1.78-1.06-2.97-2.05-4.35Z"/>
  <path class="cls-1" d="M150.41,131c2.37-.25,2.89.44,4.83,1.4.78.39,1.73.19,2.46.64.78.49,2.85,2.59,3.04,3.42-.79.59-3.37-2.2-4.89-2.31-2.62-.18-1.9,3.49-3.39,4.75-2.71,1.24-1.75-4.56-4.62-5.09-2.9-.53-3.65,2.03-6.03,1.85,1.03-1.48,2.06-2.33,3.57-3.24,1.2.44,2.42-.12,3.1-1.15.64-.14,1.28-.24,1.93-.28Z"/>
  <path class="cls-1" d="M135.46,128.91c2.92-.24,6.21,1.24,8.02,3.53-1.24,1-1.67,1.48-2.59,2.75-1.65-1.41-1.87-4.13-4.89-2.88-2.12,1.11-2.37,3.51-3.81,5.1-.23.23-.55.41-.87.38-.74-.06-1.17-.8-1.04-1.5.47-2.58,3.27-5.72,5.18-7.39Z"/>
  <path class="cls-1" d="M163.57,128.92c.81-.05,1.89-.03,2.66.23,1.89,2.1,3.03,4.37,3.11,7.24.02.57-.02,1.86-.88,1.91-.13,0-.4-.15-.45-.28-.4-1-.28-2.16-.6-3.19-.28-.92-.39-1.23-.98-1.94-1.93-1.74-3.6-.23-4.2,1.74-.11.37-.39.94-.59,1.28-.93-1.49-1.47-2.13-2.77-3.27,1.58-.45,2.75-1.16,3.75-2.51.22-.3.43-.79.67-1.14l.28-.05Z"/>
  <path class="cls-1" d="M126.56,141.82c4.11-.07,8.47,0,12.59,0,.04.41.13.87.2,1.29-.83-.32-1.52-.47-2.4-.54-.26-.02-.52-.04-.78-.05-2.95-.09-5.18,1.07-7.28,3.02-1.18-1.26-1.7-2.11-2.34-3.71Z"/>
  <path class="cls-1" d="M162.92,141.81h10.51c-.45,1.17-.69,1.62-1.37,2.62-.29.39-.61.76-.94,1.12-.22-.22-.45-.44-.68-.65-2.24-1.99-4.71-2.51-7.6-2.34.04-.23.06-.52.09-.75Z"/>
  <path class="cls-1" d="M158.81,160.8c1.7,1.14,3.32,1.43,5.31,1.57-1.7.85-3.42,1.45-5.25,1.95-1.61.37-3,.59-4.64.81,2.11-1.2,3.33-2.19,4.59-4.33Z"/>
  <path class="cls-1" d="M141.2,160.84c1.26,2.1,2.48,3.15,4.6,4.29-1.51-.2-2.96-.41-4.44-.78-1.65-.39-3.9-1.19-5.39-1.97,2.21-.2,3.26-.41,5.23-1.54Z"/>
  <path class="cls-1" d="M143.05,119.79c.93-.14,1.81.5,1.96,1.43.15.93-.48,1.81-1.41,1.97-.61.11-1.23-.13-1.62-.6-.39-.48-.5-1.13-.28-1.71.22-.58.74-.99,1.35-1.09Z"/>
  <path class="cls-1" d="M144.44,123.96c.66.36.88,1.21.67,1.91-.14.45-.44.83-.86,1.05-.54.28-.96.22-1.5.05-.79-.44-.98-.95-.99-1.81.65-.27.84-.44,1.32-.92.57-.04.83-.07,1.36-.28Z"/>
  <path class="cls-1" d="M147.53,121.88c.68.05,1.14.93,1.12,1.57,0,.47-.21.92-.55,1.25-.48.45-.88.48-1.49.45-.07-.02-.28-.06-.31-.11-.34-.67-.49-1.1-.97-1.7.14-.18.28-.39.41-.57.85-.18,1.13-.3,1.79-.88Z"/>
  <path class="cls-1" d="M147.97,125.98c.11-.03.06-.02.18.02,1.05.99.13,3.58-2.14,2.63-.47-.33-.62-.56-.8-1.1.49-.48.7-.78.9-1.44.79.1,1.09.12,1.86-.11Z"/>
  <path class="cls-1" d="M144.24,128.01l.03.02c.2.44.39.75.72,1.1-.52,1.01-1.24,1.35-2.32.99-.6-.34-.75-.57-1-1.19.47-.31.62-.44.95-.9.57.09,1.05.12,1.6-.01Z"/>
  <path class="cls-1" d="M147.46,116.79c.28,0,.48-.03.75.07.45.15.83.49,1.03.92.46.97.02,1.9-.92,2.33-.4-.36.28-1.57-1.98-2.64.35-.4.63-.54,1.12-.68Z"/>
  <path class="cls-1" d="M140.68,125.31c.06.06.07.24.08.32.07.83.43,1.35.99,1.92-.58.61-1.02.73-1.84.61-.92-.37-1.19-.92-1.2-1.86.9-.15,1.32-.32,1.96-1Z"/>
  <path class="cls-1" d="M150.07,119.9c1.5.34,1.38,3.24-.39,3.26-.26-1.04-.4-1.32-1.25-2.02.82-.3,1.14-.53,1.64-1.24Z"/>
  <path class="cls-1" d="M145.16,118.37c.27-.03.44-.04.71.02.46.11.86.4,1.11.81.24.4.3.89.18,1.34-.15.53-.44.79-.89,1.05l-.14.03c-.16-.17-.15-.89-.3-1.21-.39-.81-.82-1.1-1.58-1.51.35-.28.52-.37.92-.53Z"/>
  <path class="cls-1" d="M138.3,121.89c.23.33-.59,1.84,1.37,3.04-.56.33-.77.34-1.39.33-.62-.17-1.09-.51-1.3-1.13-.15-.44-.12-.92.1-1.33.28-.53.68-.74,1.22-.91Z"/>
  <path class="cls-1" d="M140.56,120.91l.06.06c-.09,1.46.23,2.07,1.38,2.94-.46.29-.66.34-1.19.38-1.9-.44-2.07-2.61-.25-3.38Z"/>
  <path class="cls-1" d="M150.87,123.81c.25.21.34.42.47.71-.08.65-.13,1.58-.78,1.93-.24.13-.69.33-.94.21-.2-.63-.27-.82-.65-1.36.33-.41.44-.62.62-1.1.59-.08.77-.12,1.3-.39Z"/>
  <path class="cls-1" d="M145.85,129.69c.79.19,1.19.2,1.98,0-.03.87-.2,1.28-.96,1.73-.86.33-1.45.08-2.05-.55.53-.46.67-.59,1.02-1.19Z"/>
  <path class="cls-1" d="M145.57,114.87c.26.31-.53,2.14-.7,2.52-.21.09-.48.2-.67.32-.46.28-.76.75-1.16,1.08,0,0-.34.06-.37.07l-.06-.1c.07-1.12,1.21-1.97,1.95-2.69.41-.4.7-.73,1.03-1.2Z"/>
  <path class="cls-1" d="M140.13,119.14c.56-.03.93.06,1.46.21-.15.15-.33.31-.48.46-.85.04-1.22.26-1.9.71-.34-.04-.66-.1-1-.16-.68-.17-1.03-.3-1.66-.62,1.57-.06,2.25-.45,3.58-.61Z"/>
  <path class="cls-1" d="M150.66,127.51c.54.31.16,1.46-.22,1.8-.5.45-.74.51-1.38.53l-.16-.06c-.09-.16-.11-.43-.13-.62.39-.53.59-.8.76-1.44.47-.06.69-.08,1.13-.21Z"/>
  <path class="cls-1" d="M151.72,129.22c.11.11.43.61.45.79h-.13c-.25-.01-.5-.04-.75-.07.16-.24.29-.47.44-.72Z"/>
</svg>