<?xml version="1.0" encoding="UTF-8"?>
<svg id="Layer_1" data-name="Layer 1" xmlns="http://www.w3.org/2000/svg" viewBox="0 0 300 300">
  <defs>
    <style>
      .cls-1 {
        fill: #c9a962;
      }
    </style>
  </defs>
  <path class="cls-1" d="M126.87,180.04h-.44c-.19,0-.38-.08-.51-.21s-.21-.32-.21-.51.08-.38.21-.51.32-.21.51-.21h.44c.19,0,.38.08.51.21s.21.32.21.51-.08.38-.21.51-.32.21-.51.21Z"/>
  <path class="cls-1" d="M175.21,138.86c-.19,0-.38-.08-.51-.21s-.21-.32-.21-.51c0-10.66-9.42-19.33-20.99-19.33s-20.99,8.67-20.99,19.33c0,.19-.08.38-.21.51s-.32.21-.51.21-.38-.08-.51-.21-.21-.32-.21-.51c0-11.46,10.07-20.79,22.44-20.79s22.45,9.33,22.45,20.79c0,.19-.08.38-.21.51s-.32.21-.51.21Z"/>
  <path class="cls-1" d="M126.65,174.15c-1,0-1.98.3-2.81.85-.83.56-1.48,1.34-1.86,2.27-.38.92-.48,1.94-.29,2.92s.68,1.88,1.38,2.59c.71.71,1.61,1.19,2.59,1.38.98.19,2,.09,2.92-.29.92-.38,1.71-1.03,2.27-1.86s.85-1.81.85-2.81c0-1.34-.53-2.63-1.48-3.57-.95-.95-2.23-1.48-3.57-1.48ZM126.65,185.72c-1.29,0-2.55-.38-3.62-1.1s-1.91-1.73-2.4-2.92-.62-2.5-.37-3.76c.25-1.26.87-2.42,1.78-3.33.91-.91,2.07-1.53,3.33-1.78s2.57-.12,3.76.37c1.19.49,2.21,1.33,2.92,2.4.72,1.07,1.1,2.33,1.1,3.62,0,1.73-.69,3.38-1.91,4.6-1.22,1.22-2.87,1.91-4.6,1.91Z"/>
  <path class="cls-1" d="M117.44,134.58c-.33,0-.65.1-.92.28s-.49.44-.61.75-.16.64-.1.96c.06.32.22.62.45.85.23.23.53.39.85.46.32.06.66.03.96-.09.3-.13.56-.34.75-.61.18-.27.28-.59.28-.92,0-.44-.18-.86-.49-1.17-.31-.31-.73-.49-1.17-.49ZM117.44,139.36c-.62,0-1.22-.18-1.73-.52-.51-.34-.91-.83-1.15-1.4-.24-.57-.3-1.2-.18-1.8.12-.6.42-1.16.85-1.6.44-.44.99-.73,1.6-.85.6-.12,1.23-.06,1.8.18.57.24,1.06.64,1.4,1.15.34.51.52,1.12.52,1.73,0,.83-.33,1.62-.91,2.2s-1.38.91-2.2.91Z"/>
  <path class="cls-1" d="M179.17,174.15c-1,0-1.98.3-2.81.85-.83.56-1.48,1.34-1.86,2.27-.38.92-.48,1.94-.29,2.92s.68,1.88,1.38,2.59c.71.71,1.61,1.19,2.59,1.38.98.19,2,.09,2.92-.29.92-.38,1.71-1.03,2.27-1.86s.85-1.81.85-2.81c0-1.34-.53-2.63-1.48-3.57-.95-.95-2.23-1.48-3.57-1.48ZM179.17,185.72c-1.29,0-2.55-.38-3.62-1.1s-1.91-1.73-2.4-2.92-.62-2.5-.37-3.76c.25-1.26.87-2.42,1.78-3.33.91-.91,2.07-1.53,3.33-1.78s2.57-.12,3.76.37c1.19.49,2.21,1.33,2.92,2.4.72,1.07,1.1,2.33,1.1,3.62,0,1.73-.69,3.38-1.91,4.6-1.22,1.22-2.87,1.91-4.6,1.91Z"/>
  <path class="cls-1" d="M179.1,173.79c-.19,0-.38-.08-.51-.21s-.21-.32-.21-.51v-10.77c0-.19.08-.38.21-.51s.32-.21.51-.21.38.08.51.21.21.32.21.51v10.77c0,.19-.08.38-.21.51s-.32.21-.51.21Z"/>
  <path class="cls-1" d="M173.13,179.9h-40.44c-.19,0-.38-.08-.51-.21s-.21-.32-.21-.51.08-.38.21-.51.32-.21.51-.21h40.44c.19,0,.38.08.51.21s.21.32.21.51-.08.38-.21.51-.32.21-.51.21Z"/>
  <path class="cls-1" d="M126.72,173.79c-.19,0-.38-.08-.51-.21s-.21-.32-.21-.51v-10.33c0-.19.08-.38.21-.51s.32-.21.51-.21.38.08.51.21.21.32.21.51v10.33c0,.19-.08.38-.21.51s-.32.21-.51.21Z"/>
  <path class="cls-1" d="M181.11,163.65c-2.3,0-4.18-1.95-4.18-4.34,0-.19.08-.38.21-.51s.32-.21.51-.21.38.08.51.21.21.32.21.51c0,1.59,1.22,2.89,2.72,2.89.42,0,.84-.1,1.22-.28.38-.18.72-.44,1-.75.21-.23.36-.51.45-.81s.11-.62.06-.93c-1.65-10.02-2.18-15.2-2.18-15.25v-.04c-.1-2.4-1.96-2.5-2.17-2.5h-51.97c-2.21,0-2.54,2.51-2.55,2.62,0,.07-.84,8.09-2.08,15.19-.05.3-.03.62.06.91.09.3.24.57.44.8.28.32.62.58,1,.76.38.18.8.28,1.23.28,1.5,0,2.72-1.29,2.72-2.88,0-.19.08-.38.21-.51s.32-.21.51-.21.38.08.51.21.21.32.21.51c0,2.39-1.87,4.34-4.18,4.34-.64,0-1.26-.15-1.84-.42-.58-.27-1.09-.66-1.5-1.14-.34-.39-.6-.86-.74-1.36-.14-.5-.17-1.03-.09-1.54,1.22-7.05,2.06-15.03,2.06-15.11.15-1.36,1.18-3.91,4-3.91h51.97c.62.02,1.22.19,1.76.49.8.45,1.78,1.41,1.87,3.38.04.37.58,5.49,2.17,15.14.08.52.05,1.05-.1,1.55-.15.5-.4.97-.75,1.36-.41.48-.92.87-1.49,1.14-.57.27-1.2.41-1.83.41Z"/>
  <path class="cls-1" d="M139.53,163.65c-2.3,0-4.18-1.95-4.18-4.34,0-.19.08-.38.21-.51s.32-.21.51-.21.38.08.51.21.21.32.21.51c0,1.59,1.22,2.88,2.72,2.88s2.72-1.29,2.72-2.88c0-.19.08-.38.21-.51s.32-.21.51-.21.38.08.51.21c.14.14.21.32.21.51,0,2.4-1.87,4.34-4.18,4.34Z"/>
  <path class="cls-1" d="M146.48,163.65c-2.3,0-4.18-1.95-4.18-4.34,0-.19.08-.38.21-.51s.32-.21.51-.21.38.08.51.21.21.32.21.51c0,1.59,1.22,2.88,2.72,2.88s2.72-1.29,2.72-2.88c0-.19.08-.38.21-.51s.32-.21.51-.21.38.08.51.21.21.32.21.51c0,2.4-1.88,4.34-4.18,4.34Z"/>
  <path class="cls-1" d="M153.43,163.65c-2.3,0-4.18-1.95-4.18-4.34,0-.19.08-.38.21-.51s.32-.21.51-.21.38.08.51.21.21.32.21.51c0,1.59,1.22,2.88,2.72,2.88s2.72-1.29,2.72-2.88c0-.19.08-.38.21-.51s.32-.21.51-.21.38.08.51.21c.14.14.21.32.21.51,0,2.4-1.87,4.34-4.18,4.34Z"/>
  <path class="cls-1" d="M160.38,163.65c-2.3,0-4.18-1.95-4.18-4.34,0-.19.08-.38.21-.51s.32-.21.51-.21.38.08.51.21.21.32.21.51c0,1.59,1.22,2.88,2.72,2.88s2.72-1.29,2.72-2.88c0-.19.08-.38.21-.51s.32-.21.51-.21.38.08.51.21.21.32.21.51c0,2.4-1.87,4.34-4.17,4.34Z"/>
  <path class="cls-1" d="M167.32,163.65c-2.3,0-4.18-1.95-4.18-4.34,0-.19.08-.38.21-.51s.32-.21.51-.21.38.08.51.21.21.32.21.51c0,1.59,1.22,2.88,2.72,2.88s2.72-1.29,2.72-2.88c0-.19.08-.38.21-.51s.32-.21.51-.21.38.08.51.21.21.32.21.51c0,2.4-1.87,4.34-4.18,4.34Z"/>
  <path class="cls-1" d="M174.16,163.65c-2.3,0-4.18-1.95-4.18-4.34,0-.19.08-.38.21-.51s.32-.21.51-.21.38.08.51.21.21.32.21.51c0,1.59,1.22,2.88,2.72,2.88s2.72-1.29,2.72-2.88c0-.19.08-.38.21-.51s.32-.21.51-.21.38.08.51.21.21.32.21.51c0,2.4-1.87,4.34-4.18,4.34Z"/>
  <path class="cls-1" d="M132.58,163.65c-2.3,0-4.18-1.95-4.18-4.34,0-.19.08-.38.21-.51s.32-.21.51-.21.38.08.51.21.21.32.21.51c0,1.59,1.22,2.88,2.72,2.88s2.73-1.29,2.73-2.88c0-.19.08-.38.21-.51s.32-.21.51-.21.38.08.51.21.21.32.21.51c0,2.4-1.88,4.34-4.18,4.34Z"/>
  <path class="cls-1" d="M153.49,118.79c-.19,0-.38-.08-.51-.21s-.21-.32-.21-.51v-2.76c0-.19.08-.38.21-.51s.32-.21.51-.21.38.08.51.21.21.32.21.51v2.76c0,.19-.08.38-.21.51s-.32.21-.51.21Z"/>
  <path class="cls-1" d="M154.8,115.74h-2.76c-.19,0-.38-.08-.51-.21s-.21-.32-.21-.51.08-.38.21-.51.32-.21.51-.21h2.76c.19,0,.38.08.51.21s.21.32.21.51-.08.38-.21.51-.32.21-.51.21Z"/>
  <path class="cls-1" d="M176.96,141.64h-.06c-.1,0-.19-.03-.27-.08-.09-.04-.16-.1-.22-.18-.06-.07-.11-.16-.14-.25-.03-.09-.04-.19-.03-.28l.15-1.98h-46.04l.2,1.91c.01.1,0,.2-.02.29-.03.1-.07.18-.13.26-.06.08-.14.14-.22.19-.09.05-.18.08-.28.09-.1,0-.2,0-.29-.03-.09-.03-.18-.08-.26-.14-.07-.06-.14-.14-.18-.23-.04-.09-.07-.18-.07-.28l-.28-2.72c-.01-.1,0-.2.03-.3.03-.1.08-.19.15-.26.07-.08.15-.14.25-.18.09-.04.19-.06.3-.06h47.64c.1,0,.2.02.29.06.09.04.17.1.24.17.07.07.12.16.15.26.03.09.05.2.04.3l-.21,2.76c-.01.18-.1.36-.23.48-.13.13-.31.19-.5.19Z"/>
  <path class="cls-1" d="M124.79,143.27s-.1,0-.15-.02c-.19-.04-.35-.15-.46-.32-.1-.16-.14-.36-.1-.55.49-2.28.21-4.11-.84-5.42-1.83-2.3-5.45-2.39-5.48-2.39-.19,0-.38-.08-.51-.22-.13-.14-.21-.32-.21-.52s.08-.38.22-.51c.14-.13.32-.21.52-.21.18,0,4.33.09,6.59,2.93,1.33,1.67,1.71,3.9,1.13,6.64-.03.16-.13.31-.26.42s-.29.16-.46.16Z"/>
  <path class="cls-1" d="M179.39,180.04h-.44c-.19,0-.38-.08-.51-.21s-.21-.32-.21-.51.08-.38.21-.51.32-.21.51-.21h.44c.19,0,.38.08.51.21s.21.32.21.51-.08.38-.21.51-.32.21-.51.21Z"/>
  <path class="cls-1" d="M179.1,171.17h-52.37c-.19,0-.38-.08-.51-.21s-.21-.32-.21-.51.08-.38.21-.51.32-.21.51-.21h52.37c.19,0,.38.08.51.21s.21.32.21.51-.08.38-.21.51-.32.21-.51.21Z"/>
</svg>