<?xml version="1.0" encoding="UTF-8"?>
<svg id="Layer_1" data-name="Layer 1" xmlns="http://www.w3.org/2000/svg" viewBox="0 0 300 300">
  <defs>
    <style>
      .cls-1 {
        fill: #c9a962;
        fill-rule: evenodd;
      }
    </style>
  </defs>
  <path class="cls-1" d="M115.55,124.79c0-.77,1.22-.8,1.23,0v53.15c0,1.38.57,2.63,1.48,3.54.91.91,2.18,1.47,3.57,1.47h56.33c2.78,0,5.05-2.26,5.05-5.01v-53.15c0-.33.27-.61.61-.61s.61.27.61.61v53.15c0,1.72-.71,3.27-1.84,4.4-1.14,1.13-2.71,1.83-4.44,1.83h-56.33c-3.46,0-6.28-2.8-6.28-6.23v-53.15ZM178.17,115.83c.78-.01.81,1.23,0,1.22h-56.33c-.34,0-.61-.27-.61-.61s.27-.61.61-.61h56.33Z"/>
  <path class="cls-1" d="M184.35,117.05h-68.71c-2.63.05-1.63,3.73-1.81,5.34,0,.99.81,1.79,1.81,1.79h68.71c2.63-.05,1.63-3.73,1.81-5.34,0-.99-.81-1.79-1.81-1.79ZM115.65,115.83h68.71c1.67,0,3.04,1.36,3.04,3.01v3.55c0,1.66-1.37,3.01-3.04,3.01h-68.71c-1.67,0-3.04-1.36-3.04-3.01v-3.55c0-1.66,1.37-3.01,3.04-3.01Z"/>
  <path class="cls-1" d="M150.61,182.95h26.94v-47.54c0-.96-.4-1.83-1.03-2.46-.64-.63-1.52-1.02-2.48-1.02h-19.91c-.97,0-1.85.39-2.48,1.02-.64.63-1.03,1.5-1.03,2.46v47.54ZM178.17,184.17h-28.17c-.34,0-.61-.27-.61-.61v-48.15c0-2.59,2.13-4.7,4.74-4.71h19.91c1.3,0,2.49.53,3.35,1.38.86.85,1.39,2.03,1.39,3.32v48.15c0,.33-.28.61-.61.61Z"/>
  <path class="cls-1" d="M128.5,157.67l14.92-3.97c.99-.26,1.58-1.28,1.32-2.27l-4.79-17.71c-.27-.98-1.29-1.57-2.28-1.31l-14.92,3.97c-.99.26-1.58,1.28-1.32,2.26l4.79,17.71c.27.99,1.29,1.57,2.28,1.31ZM143.74,154.88l-14.92,3.97c-1.64.44-3.34-.54-3.78-2.17l-4.79-17.71c-.44-1.62.55-3.32,2.18-3.75l14.92-3.97c1.64-.44,3.34.54,3.78,2.17l4.79,17.71c.44,1.62-.55,3.32-2.18,3.75Z"/>
  <path class="cls-1" d="M122.27,168.47c0-.79,1.23-.79,1.23,0,.16,1.22-.6,3.93,1.09,3.94h17c.6,0,1.09-.49,1.09-1.08.12-1.4-.4-3.54.61-3.47,1.02-.06.49,2.08.61,3.47,0,1.26-1.04,2.29-2.31,2.29h-17.01c-2.84-.06-2.29-3.24-2.31-5.15Z"/>
  <path class="cls-1" d="M143.28,169.08h-20.4c-.34,0-.61-.27-.61-.61v-2.57c0-1.67,1.38-3.03,3.06-3.03h15.51c.84,0,1.6.34,2.16.89,1.23.98.84,3.34.9,4.71,0,.34-.28.61-.61.61ZM123.5,167.87h19.17c.03-1.46.27-3.74-1.83-3.77h-15.51c-2.12.05-1.86,2.29-1.83,3.77Z"/>
  <path class="cls-1" d="M128.39,151.04l11.78-3.13-3.21-11.88-11.78,3.13,3.21,11.88ZM141.07,148.93l-12.96,3.45c-.33.09-.66-.11-.75-.43l-3.53-13.06c-.09-.32.11-.66.43-.74l12.96-3.45c.33-.08.66.11.75.43l3.53,13.06c.09.32-.11.66-.43.74Z"/>
  <path class="cls-1" d="M177.55,168.52c-.72-.11-.61-1.22.11-1.21.44-.04,1.13,0,1.12.61v8.12c0,.33-.27.61-.61.61h-17.03c-3.34.07-5.73-3.63-4.28-6.6.28-.61.69-1.15,1.2-1.59.59-.52,1.4.4.81.91-2.42,1.95-.85,6.16,2.28,6.06h16.42v-6.92Z"/>
  <path class="cls-1" d="M164.08,131.92h-6.43v34.21c0,.79.33,1.52.85,2.04.76.8,2.12,1.08,3.16.63,1.26-.79,2.48-1.98,3.88-.63.79.81,2.12,1.07,3.16.63,1.25-.79,2.48-1.98,3.88-.63,1.71,1.81,5.04.46,4.96-2.04v-30.72c0-1.92-1.58-3.49-3.51-3.49h-9.95ZM157.04,130.7h16.99c2.61,0,4.74,2.12,4.74,4.71v30.72c.06,2.85-3.09,4.93-5.71,3.79-.9-.2-1.61-1.71-2.55-.89-1.52,1.58-4.31,1.58-5.83,0-.95-.82-1.65.68-2.55.89-1.48.65-3.41.24-4.49-.89-.75-.74-1.22-1.77-1.22-2.9v-34.81c0-.33.28-.61.61-.61Z"/>
  <path class="cls-1" d="M164.7,167.92c.01.78-1.24.79-1.23,0v-16.68c-.01-.78,1.24-.79,1.23,0v16.68Z"/>
  <path class="cls-1" d="M171.74,167.92c.01.79-1.24.79-1.23,0v-8.9c0-.79,1.24-.79,1.23,0v8.9Z"/>
  <path class="cls-1" d="M164.7,146.05c.01.79-1.24.79-1.23,0v-10.26c-.01-.79,1.24-.79,1.23,0v10.26Z"/>
  <path class="cls-1" d="M171.74,155.17c.01.78-1.24.79-1.23,0v-12.4c0-.78,1.24-.79,1.23,0v12.4Z"/>
</svg>